<svg xmlns="http://www.w3.org/2000/svg" viewBox="0 0 1200 675"><defs><linearGradient id="b" x1="0" y1="0" x2="1" y2="1"><stop stop-color="#082236"/><stop offset="1" stop-color="#0b6172"/></linearGradient></defs><rect width="1200" height="675" fill="url(#b)"/><path d="M0 520 Q180 460 380 520 T760 510 T1200 490 V675 H0Z" fill="#06131d"/><g><path d="M430 470 L770 470 L705 520 L485 525 Z" fill="#e0bd73" stroke="#38281d" stroke-width="8"/><path d="M595 460 L600 160 L610 460Z" fill="#d6bc89"/><path d="M605 170 L605 450 L755 330 L610 170Z" fill="#f7f0d8"/><animateTransform attributeName="transform" type="translate" values="-70 0;70 0;-70 0" dur="3.6s" repeatCount="indefinite"/></g><g fill="none" stroke="#bdefff" stroke-width="9" opacity=".35"><path d="M0 575 Q250 520 480 575 T960 565 T1200 540"/><path d="M0 610 Q250 560 480 610 T960 600 T1200 580"/></g><text x="45" y="75" fill="#fff" font-family="Arial" font-size="30" font-weight="900">RÜZGÂR LIMANI · OYNANIŞ KESİTİ</text></svg>